<?xml version="1.0" standalone="no"?>
<!DOCTYPE svg PUBLIC "-//W3C//DTD SVG 20010904//EN"
 "http://www.w3.org/TR/2001/REC-SVG-20010904/DTD/svg10.dtd">
<svg version="1.0" xmlns="http://www.w3.org/2000/svg"
 width="700.000000pt" height="700.000000pt" viewBox="0 0 700.000000 700.000000"
 preserveAspectRatio="xMidYMid meet">
<metadata>
Created by potrace 1.14, written by Peter Selinger 2001-2017
</metadata>
<g transform="translate(0.000000,700.000000) scale(0.100000,-0.100000)"
fill="#000000" stroke="none">
<path d="M2604 6345 l-31 -95 86 0 c715 -2 1755 1 1759 4 2 3 -8 46 -23 96
l-28 90 -867 0 -866 0 -30 -95z"/>
<path d="M2568 6002 l-38 -3 0 -498 0 -499 97 -12 c102 -13 132 -16 248 -25
39 -3 90 -8 115 -10 242 -21 807 -21 1030 0 19 2 69 6 110 10 80 6 93 8 243
26 l97 11 0 499 0 499 -32 1 c-146 2 -1841 3 -1870 1z"/>
<path d="M1165 5181 c-121 -211 -234 -409 -251 -440 -18 -31 -84 -146 -147
-256 l-115 -200 1424 -3 c783 -1 2065 -1 2848 0 l1423 3 -354 620 c-195 341
-360 629 -367 640 -13 20 -25 20 -460 20 -291 0 -446 -3 -447 -10 0 -5 -2 -20
-3 -32 -2 -19 5 -23 53 -32 413 -78 601 -188 601 -351 0 -155 -170 -260 -550
-340 -58 -12 -118 -24 -135 -26 -16 -2 -48 -6 -70 -10 -42 -7 -51 -9 -130 -18
-27 -4 -63 -8 -80 -10 -16 -3 -68 -7 -115 -11 -47 -4 -101 -9 -120 -11 -294
-26 -1186 -26 -1352 1 -13 2 -61 6 -108 10 -47 3 -94 8 -105 10 -11 3 -47 7
-80 10 -53 5 -213 29 -270 40 -11 2 -46 9 -78 15 -188 36 -384 110 -463 175
-97 80 -111 216 -31 304 76 82 275 160 543 211 56 11 61 14 58 37 -1 14 -5 28
-9 31 -4 4 -206 7 -449 7 l-442 0 -219 -384z m1017 -470 c3 0 6 -55 6 -121 l0
-120 -439 0 -438 0 1 123 2 123 430 -2 c237 0 434 -2 438 -3z m3504 -118 l2
-123 -439 0 -438 0 0 117 c0 65 5 120 10 123 5 3 201 6 436 6 l428 -1 1 -122z"/>
<path d="M2140 5219 c-121 -31 -220 -67 -220 -79 0 -12 96 -47 194 -71 45 -11
99 -25 120 -30 25 -7 41 -7 45 -1 5 8 6 147 2 199 -1 16 -17 14 -141 -18z"/>
<path d="M4718 5238 c-3 -11 -2 -171 1 -201 1 -4 13 -5 29 -2 164 35 332 88
332 106 0 12 -102 48 -223 79 -135 34 -134 34 -139 18z"/>
<path d="M570 4032 c-7 -3 -10 -226 -10 -643 l0 -639 113 0 c61 -1 270 -1 462
0 l351 0 44 -68 c93 -142 207 -271 295 -332 114 -78 399 -188 564 -216 14 -3
35 -8 46 -11 11 -3 29 -7 40 -9 11 -1 45 -7 75 -13 59 -11 94 -16 180 -26 30
-4 69 -8 85 -10 271 -32 906 -32 1340 0 28 2 97 6 155 10 58 3 125 8 150 10
25 2 88 7 140 10 52 3 120 8 150 10 30 3 100 7 155 11 55 3 118 8 140 9 381
27 914 27 1054 0 117 -22 223 -64 246 -98 18 -25 20 -124 4 -181 -19 -68 -50
-104 -114 -136 -33 -16 -85 -34 -115 -39 -52 -10 -391 -8 -436 2 -11 3 -45 8
-75 11 -61 7 -85 10 -202 27 -45 6 -91 13 -102 14 -11 2 -38 6 -60 9 -22 4
-56 9 -75 12 -19 2 -46 6 -60 9 -31 6 -71 12 -130 20 -25 3 -70 10 -100 15
-30 5 -71 12 -90 14 -38 5 -181 23 -245 31 -22 2 -67 7 -100 10 -33 4 -80 8
-105 11 -170 18 -526 23 -705 11 -296 -19 -588 -85 -835 -187 -83 -34 -278
-135 -297 -153 -9 -9 57 -12 285 -11 271 2 304 4 374 23 43 12 88 24 100 26
241 47 371 59 648 59 169 0 411 -10 459 -19 9 -2 52 -6 96 -10 44 -4 91 -8
105 -11 14 -2 49 -6 78 -10 29 -3 63 -7 74 -9 12 -3 56 -9 97 -15 42 -6 87
-12 101 -15 14 -2 43 -6 65 -10 22 -3 65 -10 95 -15 30 -5 78 -12 105 -15 28
-4 57 -8 65 -10 17 -4 91 -16 130 -20 36 -4 183 -25 206 -29 94 -18 428 -27
529 -14 318 40 487 222 489 523 0 90 -3 106 -29 160 -66 137 -226 233 -435
261 -25 3 -48 8 -51 10 -15 9 -241 18 -429 18 -222 0 -414 -8 -725 -29 -55 -4
-116 -8 -135 -10 -19 -1 -84 -5 -145 -9 -60 -4 -128 -9 -150 -11 -22 -2 -96
-7 -165 -10 -69 -4 -147 -8 -175 -10 -281 -20 -925 -26 -1130 -11 -60 4 -117
8 -125 8 -19 1 -249 27 -299 34 -191 28 -429 95 -557 158 -72 35 -169 120
-233 203 l-32 43 2258 0 c1242 0 2288 0 2326 0 l67 0 0 640 c0 505 -3 640 -12
641 -36 3 -5849 4 -5858 1z m1301 -217 c1 -38 1 -857 0 -868 -1 -4 -49 -6
-107 -5 l-106 3 -59 113 c-33 62 -58 116 -54 121 3 5 17 8 32 6 51 -5 51 -7
51 209 l0 202 -314 0 -314 0 -1 -31 c-5 -208 -2 -375 6 -378 6 -2 66 -3 134
-2 l123 0 51 -105 c28 -58 55 -113 59 -122 7 -17 -11 -18 -307 -18 l-315 0 0
449 0 450 43 3 c23 2 275 3 560 3 l517 0 1 -30z m1446 26 l22 -1 0 -450 0
-450 -562 0 -562 0 0 448 c0 341 3 448 12 452 9 4 932 4 1090 1z m1471 -6 c4
-4 7 -207 7 -451 l0 -444 -560 2 -560 3 -1 445 c0 245 1 447 2 450 3 8 1104 3
1112 -5z m1445 5 c16 0 17 -28 17 -450 l0 -450 -562 2 -561 3 -1 447 -1 447
30 3 c23 2 993 1 1078 -2z"/>
<path d="M2468 3595 c0 0 -2 -91 -3 -202 -2 -143 1 -203 9 -204 6 -1 147 -2
314 -3 l302 -1 0 50 c1 96 1 260 1 311 l-1 50 -310 0 c-170 0 -311 0 -312 -1z"/>
<path d="M3922 3391 l3 -205 300 -1 c165 -1 306 1 313 3 9 3 12 53 12 206 l0
202 -315 0 -315 0 2 -205z"/>
<path d="M5375 3590 c-2 -3 -3 -95 -3 -205 l1 -200 313 0 c272 0 314 2 315 15
0 18 0 310 0 360 l-1 36 -311 0 c-171 0 -312 -3 -314 -6z"/>
<path d="M1449 1255 c-46 -25 -101 -129 -124 -234 -3 -12 -8 -31 -11 -43 -11
-42 -13 -292 -3 -343 5 -27 12 -62 14 -78 16 -84 69 -184 118 -221 28 -21 30
-21 1034 -21 657 0 1016 3 1036 10 55 17 120 136 144 263 17 91 20 137 17 241
-4 184 -55 345 -130 410 l-35 31 -1017 0 c-853 -1 -1021 -3 -1043 -15z m1737
-141 c72 -48 71 -153 -1 -203 -90 -61 -214 28 -184 133 23 79 116 114 185 70z
m-1240 -23 c6 -1 10 -34 10 -88 l-1 -88 88 1 87 0 1 -53 c1 -29 1 -64 1 -78 0
-14 0 -45 -1 -70 l-1 -45 -88 0 -88 0 1 -87 0 -88 -122 -3 -123 -3 0 91 0 90
-90 0 -90 0 0 123 0 123 88 0 87 -1 3 85 c2 46 7 87 11 90 7 4 188 5 227 1z
m1001 -186 c12 -3 34 -20 48 -36 47 -57 26 -152 -41 -184 -40 -19 -68 -19
-108 0 -95 45 -84 195 17 224 32 9 41 8 84 -4z m458 -11 c50 -33 69 -101 42
-154 -17 -33 -74 -70 -109 -70 -127 0 -168 173 -55 229 45 22 83 21 122 -5z
m-230 -180 c61 -28 82 -111 45 -172 -78 -128 -275 -18 -208 117 31 64 98 86
163 55z"/>
</g>
</svg>
